<svg viewBox="0 0 49 26" fill="none" xmlns="http://www.w3.org/2000/svg"><g clip-path="url(#a)"><path d="M49 26h-49l24.5-26 24.5 26Zm-35.7-12.87 3.34 3.54 3.34-3.54-3.34-3.55-3.33 3.55Zm3.34 11.88 3.34-3.54-3.34-3.55-3.33 3.55 3.33 3.54Zm15.77 0 3.34-3.54-3.34-3.55-3.4 3.55 3.4 3.54Zm-3.94-19.6a268.74 268.74 0 0 1-3.23 3.45c-.1.08 0 .15 0 .23l3.07 3.27.14.13 3.34-3.53-3.32-3.56Zm-19.68 19.6.13-.14 3.07-3.26a.2.2 0 0 0 .08-.15.2.2 0 0 0-.08-.15c-.93-.96-1.84-1.95-2.75-2.92l-.45-.47-3.34 3.55 3.34 3.54Zm8.45-16.06 3.33 3.54.1-.1 3.15-3.32c.1-.12 0-.18 0-.26l-3.08-3.25-.13-.14-3.37 3.53Zm0 8.38 3.33 3.54.17-.17c1-1.05 2.01-2.1 3.02-3.21a.23.23 0 0 0 .07-.08.18.18 0 0 0 .02-.09c0-.03 0-.06-.02-.08a.23.23 0 0 0-.07-.08c-.94-1-1.89-1.99-2.82-3l-.37-.37-3.33 3.54Zm15.76 0 3.34 3.54 3.33-3.54-3.33-3.54-3.34 3.54Zm-4.53-3.55v.07l-3.17 3.36c-.1.1-.06.16 0 .25l2.94 3.14c.08.1.17.19.28.29l3.34-3.54-3.4-3.57Zm-15.74 7.07a.3.3 0 0 1 .07-.09l3.16-3.36c.1-.1 0-.15 0-.24l-3.11-3.26a.71.71 0 0 0-.15-.13l-3.32 3.53 3.35 3.55Zm19.63-4.19 3.33-3.54-3.33-3.53-3.34 3.54 3.34 3.53Zm-7.89-8.38 3.34-3.54-3.28-3.46h-.07l-3.2 3.43a.13.13 0 0 0-.04.09c0 .03.02.05.04.08l3.21 3.4Zm0 8.38 3.34-3.54-3.31-3.54-3.34 3.55 3.31 3.53Zm0 8.38 3.34-3.54-3.34-3.55-3.3 3.52 3.3 3.57Zm15.77 0 3.33-3.54-3.32-3.52h-.06l-3.22 3.38c-.1.12 0 .17 0 .24l2.62 2.84.65.6Zm-38.35.2h6l-2.98-3.15-3.02 3.15Zm39.28 0h5.94l-2.97-3.15-2.97 3.15Zm-17.62 0-2.98-3.15-2.98 3.15h5.96Zm9.76 0h5.94l-2.97-3.15-2.97 3.15Zm-1.91 0-2.97-3.15-2.97 3.15h5.94Zm-15.77 0-2.97-3.15-2.97 3.15h5.94Z" fill="#fff"/></g><defs><clipPath id="a"><path fill="#fff" d="M0 0h49v26h-49z"/></clipPath></defs></svg>