<svg viewBox="0 0 38 31" fill="none" xmlns="http://www.w3.org/2000/svg"><g clip-path="url(#a)" fill="#B3B3B3"><path d="M19.35 0c-.48 0-.89.16-1.24.48l-9.15 8.5h-7.2c-.48 0-.89.16-1.24.48-.35.32-.52.7-.52 1.15v9.78c0 .45.17.83.52 1.15.35.32.76.49 1.24.49h7.2l9.15 8.49c.35.32.76.48 1.24.48s.89-.16 1.24-.48c.35-.33.52-.71.52-1.15v-27.74c0-.44-.17-.82-.52-1.15a1.76 1.76 0 0 0-1.24-.48Zm10.25 19.13a6.43 6.43 0 0 0 0-7.25 5.98 5.98 0 0 0-2.94-2.39 1.5 1.5 0 0 0-.66-.12c-.45 0-.84.15-1.17.47-.34.32-.5.7-.5 1.16 0 .36.1.67.31.91.21.25.46.46.76.64s.6.38.89.6c.3.2.55.5.76.9.2.4.31.88.31 1.46s-.1 1.06-.31 1.46c-.21.39-.46.7-.76.9-.3.22-.6.42-.89.6-.3.17-.55.39-.76.63a1.57 1.57 0 0 0 .19 2.08c.33.31.72.47 1.17.47.26 0 .48-.04.66-.13a6.15 6.15 0 0 0 2.94-2.4v.01Z"/><path d="M35.76 22.86c1.5-2.25 2.24-4.7 2.24-7.36s-.75-5.11-2.24-7.36a12.99 12.99 0 0 0-5.94-4.91 1.93 1.93 0 0 0-.69-.13c-.45 0-.85.17-1.18.5-.34.33-.5.72-.5 1.17 0 .67.34 1.19 1.02 1.53.99.5 1.66.89 2 1.15a9.87 9.87 0 0 1 3.06 12.57 9.87 9.87 0 0 1-3.05 3.53c-.35.26-1.02.64-2 1.15-.7.34-1.04.85-1.04 1.53 0 .45.17.84.5 1.17.34.33.74.5 1.22.5.2 0 .43-.04.66-.13a12.98 12.98 0 0 0 5.94-4.91Z"/></g><defs><clipPath id="a"><path fill="#fff" d="M0 0h38v31h-38z"/></clipPath></defs></svg>