<svg viewBox="0 0 199 33" fill="none" xmlns="http://www.w3.org/2000/svg"><g clip-path="url(#a)"><path d="M49 26h-49l24.5-26 24.5 26Zm-35.7-12.87 3.34 3.54 3.34-3.54-3.34-3.55-3.33 3.55Zm3.34 11.88 3.34-3.54-3.34-3.55-3.33 3.55 3.33 3.54Zm15.77 0 3.34-3.54-3.34-3.55-3.4 3.55 3.4 3.54Zm-3.94-19.6a268.74 268.74 0 0 1-3.23 3.45c-.1.08 0 .15 0 .23l3.07 3.27.14.13 3.34-3.53-3.32-3.56Zm-19.68 19.6.13-.14 3.07-3.26a.2.2 0 0 0 .08-.15.2.2 0 0 0-.08-.15c-.93-.96-1.84-1.95-2.75-2.92l-.45-.47-3.34 3.55 3.34 3.54Zm8.45-16.06 3.33 3.54.1-.1 3.15-3.32c.1-.12 0-.18 0-.26l-3.08-3.25-.13-.14-3.37 3.53Zm0 8.38 3.33 3.54.17-.17c1-1.05 2.01-2.1 3.02-3.21a.23.23 0 0 0 .07-.08.18.18 0 0 0 .02-.09c0-.03 0-.06-.02-.08a.23.23 0 0 0-.07-.08c-.94-1-1.89-1.99-2.82-3l-.37-.37-3.33 3.54Zm15.76 0 3.34 3.54 3.33-3.54-3.33-3.54-3.34 3.54Zm-4.53-3.55v.07l-3.17 3.36c-.1.1-.06.16 0 .25l2.94 3.14c.08.1.17.19.28.29l3.34-3.54-3.4-3.57Zm-15.74 7.07a.3.3 0 0 1 .07-.09l3.16-3.36c.1-.1 0-.15 0-.24l-3.11-3.26a.71.71 0 0 0-.15-.13l-3.32 3.53 3.35 3.55Zm19.63-4.19 3.33-3.54-3.33-3.53-3.34 3.54 3.34 3.53Zm-7.89-8.38 3.34-3.54-3.28-3.46h-.07l-3.2 3.43a.13.13 0 0 0-.04.09c0 .03.02.05.04.08l3.21 3.4Zm0 8.38 3.34-3.54-3.31-3.54-3.34 3.55 3.31 3.53Zm0 8.38 3.34-3.54-3.34-3.55-3.3 3.52 3.3 3.57Zm15.77 0 3.33-3.54-3.32-3.52h-.06l-3.22 3.38c-.1.12 0 .17 0 .24l2.62 2.84.65.6Zm-38.35.2h6l-2.98-3.15-3.02 3.15Zm39.28 0h5.94l-2.97-3.15-2.97 3.15Zm-17.62 0-2.98-3.15-2.98 3.15h5.96Zm9.76 0h5.94l-2.97-3.15-2.97 3.15Zm-1.91 0-2.97-3.15-2.97 3.15h5.94Zm-15.77 0-2.97-3.15-2.97 3.15h5.94Z" fill="#fff"/></g><path d="M75.26 25.72h.14a.6.6 0 0 0 .4-.14c.1-.11.2-.24.27-.4.1-.14.16-.3.2-.47.05-.17.08-.32.08-.47v-14.98c0-.13-.03-.28-.08-.45-.04-.17-.1-.33-.2-.48a1.11 1.11 0 0 0-.28-.36.54.54 0 0 0-.39-.17h-.14v-.28h4.03v.28h-.14a.54.54 0 0 0-.39.17c-.11.1-.2.21-.28.36-.07.15-.14.31-.2.48a2.1 2.1 0 0 0-.05.45v15.7h6.13c.35 0 .66-.08.92-.25a2.5 2.5 0 0 0 1.04-1.43c.1-.3.14-.57.14-.8h.28v3.52h-11.48v-.28Zm26.3-18.48c1.46 0 2.77.26 3.92.78 1.16.5 2.14 1.2 2.94 2.08a8.68 8.68 0 0 1 1.88 3.02 9.7 9.7 0 0 1 .67 3.58 9.4 9.4 0 0 1-6.02 8.88c-1.17.47-2.44.7-3.78.7a9.17 9.17 0 0 1-6.8-2.86 9.7 9.7 0 0 1-2.46-6.47 10.07 10.07 0 0 1 2.51-6.66 9.53 9.53 0 0 1 7.14-3.05Zm-.03 18.06a7.52 7.52 0 0 0 7.06-5.43 8.88 8.88 0 0 0-.08-5.94 9.37 9.37 0 0 0-1.6-2.83 8.07 8.07 0 0 0-2.5-2.07 6.4 6.4 0 0 0-3.21-.81 6.1 6.1 0 0 0-3.1.78 7.95 7.95 0 0 0-3.82 4.65c-.33 1-.5 1.96-.5 2.91 0 1.03.2 2.07.59 3.11a9.9 9.9 0 0 0 1.62 2.8c.7.84 1.5 1.52 2.44 2.05.95.52 1.98.78 3.1.78Zm16.9-17.78h3.97v.28h-.14a.54.54 0 0 0-.39.17c-.11.1-.21.21-.3.36a2.03 2.03 0 0 0-.23.93v11.06c0 .72.08 1.4.22 2.01a3.68 3.68 0 0 0 2.16 2.66 5.5 5.5 0 0 0 2.13.37c.93 0 1.68-.15 2.24-.45.56-.3.99-.68 1.29-1.15.3-.49.5-1.03.58-1.62.1-.6.14-1.19.14-1.77v-11.11c0-.13-.01-.28-.05-.45-.04-.17-.1-.33-.2-.48a1.12 1.12 0 0 0-.28-.36.5.5 0 0 0-.36-.17h-.14v-.28h3.05v.28h-.14a.54.54 0 0 0-.4.17c-.09.1-.18.21-.27.36a2.03 2.03 0 0 0-.23.93v11.03a8.5 8.5 0 0 1-.44 3 4.34 4.34 0 0 1-3.08 2.74 9.76 9.76 0 0 1-4.57-.03 4.33 4.33 0 0 1-1.85-.92 4.49 4.49 0 0 1-1.23-1.82 8.32 8.32 0 0 1-.45-2.94v-11.06c0-.13-.02-.28-.05-.45-.04-.17-.1-.33-.2-.48a1.12 1.12 0 0 0-.28-.36.5.5 0 0 0-.36-.17h-.14v-.28Zm23.65.98c0 .11.02.25.08.42l4.93 13.27 4.93-13.41.05-.17a.8.8 0 0 0 .03-.17.5.5 0 0 0-.28-.47.87.87 0 0 0-.48-.17v-.28h3.06v.28c-.28 0-.55.07-.79.22-.22.15-.4.4-.53.76l-6.41 17.56-6.55-17.48a1.97 1.97 0 0 0-.5-.72c-.21-.2-.47-.32-.8-.34v-.28h3.98v.28a.82.82 0 0 0-.5.2c-.15.1-.22.28-.22.5Zm23 17.22h.14v.28h-3.95v-.28h.14a.5.5 0 0 0 .36-.17c.11-.11.2-.24.28-.39.1-.15.16-.3.2-.48.03-.18.05-.35.05-.5v-14.92c0-.13-.02-.28-.05-.45-.04-.17-.1-.33-.2-.48a1.12 1.12 0 0 0-.28-.36.5.5 0 0 0-.36-.17h-.14v-.28h4.87c1.87 0 3.3.36 4.31 1.1a3.7 3.7 0 0 1 1.54 3.21 4.56 4.56 0 0 1-1.29 3.25 4.8 4.8 0 0 1-1.4.92 8 8 0 0 1-1.68.5l2.02 3.09 1.48 2.21c.5.7 1 1.45 1.49 2.21l.42.59c.17.2.33.4.5.56.19.17.38.3.56.42.2.1.41.14.62.14v.28h-1.2c-.75 0-1.37-.18-1.85-.53-.47-.38-.86-.8-1.18-1.29a327.42 327.42 0 0 1-4.98-7.5l-.68-.06-.64-.11v7.67a2.34 2.34 0 0 0 .22.98l.28.4c.12.1.25.16.4.16Zm-.9-17.25v7.11h.14l.7.06h1.23c.4 0 .8-.06 1.23-.17a3.38 3.38 0 0 0 2.18-1.76c.27-.47.4-1.06.4-1.77 0-.7-.14-1.28-.42-1.73a2.8 2.8 0 0 0-1.12-1.07 4.84 4.84 0 0 0-1.7-.53c-.68-.1-1.42-.14-2.22-.14h-.42Zm17.2 17.25h.15a.6.6 0 0 0 .4-.14c.1-.11.2-.24.27-.4.1-.14.16-.3.2-.47.05-.17.08-.32.08-.47v-14.98c0-.13-.03-.28-.08-.45-.04-.17-.1-.33-.2-.48a1.12 1.12 0 0 0-.28-.36.54.54 0 0 0-.4-.17h-.13v-.28h10.78v2.6h-.28c-.04-.43-.2-.8-.5-1.12-.3-.33-.77-.5-1.4-.5h-5.63v7.08h4.64c.43 0 .79-.13 1.07-.39.3-.26.45-.57.45-.92h.28v3.5h-.28c0-.34-.14-.63-.42-.87a1.6 1.6 0 0 0-1.1-.36h-4.64v8.48h6.13c.35 0 .66-.08.92-.25a2.45 2.45 0 0 0 1.04-1.35c.1-.28.14-.5.14-.7h.28v3.28h-11.48v-.28Z" fill="#fff"/><defs><clipPath id="a"><path fill="#fff" d="M0 0h49v26h-49z"/></clipPath></defs></svg>