<svg viewBox="0 0 36 30" fill="none" xmlns="http://www.w3.org/2000/svg"><g clip-path="url(#a)" fill="#B3B3B3"><path d="m32.2 15 3.47-3.46c.22-.22.33-.5.33-.8 0-.32-.11-.59-.33-.8l-1.6-1.61a1.1 1.1 0 0 0-.8-.33c-.32 0-.59.11-.8.33l-3.47 3.46-3.46-3.46a1.1 1.1 0 0 0-.8-.33c-.32 0-.59.11-.8.33l-1.61 1.6a1.1 1.1 0 0 0-.33.8c0 .32.11.59.33.8l3.46 3.47-3.46 3.46a1.1 1.1 0 0 0-.33.8c0 .32.11.59.33.8l1.6 1.61c.22.22.49.33.8.33.32 0 .59-.11.8-.33l3.47-3.46 3.47 3.46c.21.22.48.33.8.33.31 0 .58-.11.8-.33l1.6-1.6c.22-.22.33-.49.33-.8 0-.32-.11-.59-.33-.8l-3.46-3.47Zm-13.87-15c-.45 0-.84.16-1.17.47l-8.67 8.21h-6.82c-.45 0-.84.16-1.17.47-.33.32-.5.69-.5 1.11v9.48c0 .42.17.8.5 1.1.33.32.72.48 1.17.48h6.82l8.67 8.21c.33.31.72.47 1.17.47.45 0 .84-.16 1.17-.47.33-.31.5-.68.5-1.11v-26.84c0-.43-.17-.8-.5-1.11a1.64 1.64 0 0 0-1.17-.47Z"/></g><defs><clipPath id="a"><path fill="#fff" d="M0 0h36v30h-36z"/></clipPath></defs></svg>