<svg viewBox="0 0 14 23" fill="none" xmlns="http://www.w3.org/2000/svg"><path d="M12.37 0h-10.74a1.6 1.6 0 0 0-1.63 1.58v19.84c0 .42.17.82.48 1.12.3.3.72.46 1.15.46h10.74a1.6 1.6 0 0 0 1.63-1.58v-19.84a1.6 1.6 0 0 0-1.63-1.58Zm-8.43 21.18h-1.75a.6.6 0 0 1-.41-.16.56.56 0 0 1 0-.8.6.6 0 0 1 .41-.17h1.75c.16 0 .3.06.42.17a.56.56 0 0 1 0 .8.6.6 0 0 1-.42.16Zm0-2.16h-1.75a.6.6 0 0 1-.41-.16.56.56 0 0 1 0-.8.6.6 0 0 1 .41-.17h1.75c.16 0 .3.06.42.17a.56.56 0 0 1 0 .8.6.6 0 0 1-.42.16Zm0-2.16h-1.75a.6.6 0 0 1-.41-.16.56.56 0 0 1 0-.8.6.6 0 0 1 .41-.17h1.75c.16 0 .3.06.42.17a.56.56 0 0 1 0 .8.6.6 0 0 1-.42.16Zm0-2.16h-1.75a.6.6 0 0 1-.41-.16.56.56 0 0 1 0-.8.6.6 0 0 1 .41-.17h1.75c.16 0 .3.06.42.16a.56.56 0 0 1 0 .8.6.6 0 0 1-.42.17Zm3.94 6.49h-1.76a.6.6 0 0 1-.41-.17.56.56 0 0 1 0-.8.6.6 0 0 1 .41-.17h1.76c.15 0 .3.06.41.17a.56.56 0 0 1 0 .8.6.6 0 0 1-.41.17Zm0-2.17h-1.76a.6.6 0 0 1-.4-.16.56.56 0 0 1-.18-.4.55.55 0 0 1 .17-.4.58.58 0 0 1 .41-.17h1.76a.6.6 0 0 1 .41.17.57.57 0 0 1 .17.4.55.55 0 0 1-.17.4.59.59 0 0 1-.41.16Zm0-2.16h-1.76a.6.6 0 0 1-.41-.16.56.56 0 0 1 0-.8.6.6 0 0 1 .41-.17h1.76c.15 0 .3.06.41.17a.56.56 0 0 1 0 .8.6.6 0 0 1-.41.16Zm0-2.16h-1.76a.6.6 0 0 1-.41-.16.57.57 0 0 1-.17-.4.55.55 0 0 1 .17-.4.59.59 0 0 1 .41-.17h1.76a.6.6 0 0 1 .41.16.57.57 0 0 1 .17.4.55.55 0 0 1-.17.4.59.59 0 0 1-.41.17Zm3.93 6.49h-1.76a.6.6 0 0 1-.4-.17.56.56 0 0 1 0-.8.6.6 0 0 1 .4-.17h1.76c.16 0 .3.06.41.17a.56.56 0 0 1 0 .8.6.6 0 0 1-.41.17Zm0-2.17h-1.76a.6.6 0 0 1-.4-.16.56.56 0 0 1 0-.8.6.6 0 0 1 .4-.17h1.76c.15 0 .3.06.41.17a.56.56 0 0 1 0 .8.6.6 0 0 1-.41.16Zm0-2.15h-1.76a.6.6 0 0 1-.4-.17.57.57 0 0 1-.18-.4.55.55 0 0 1 .17-.4.59.59 0 0 1 .41-.17h1.76a.6.6 0 0 1 .41.17.57.57 0 0 1 .18.4.55.55 0 0 1-.18.4.59.59 0 0 1-.41.17Zm0-2.17h-1.76a.6.6 0 0 1-.4-.16.56.56 0 0 1 0-.8.6.6 0 0 1 .4-.17h1.76c.16 0 .3.06.41.17a.56.56 0 0 1 0 .8.6.6 0 0 1-.41.16Zm.62-2.44h-10.86v-10.4h10.86v10.4Z" fill="#030303"/></svg>