<svg viewBox="0 0 15 15" fill="none" xmlns="http://www.w3.org/2000/svg"><g clip-path="url(#a)"><path fill-rule="evenodd" clip-rule="evenodd" d="M8.33 5.42h4.17v-1.67h-4.17v1.67Zm0 5.83h4.17v-1.67h-4.17v1.67Zm5 3.75h-11.66c-.92 0-1.67-.75-1.67-1.67v-11.66c0-.92.75-1.67 1.67-1.67h11.66c.92 0 1.67.75 1.67 1.67v11.66c0 .92-.75 1.67-1.67 1.67Zm-10.83-8.33h4.17v-4.17h-4.17v4.17Zm.83-3.34h2.5v2.5h-2.5v-2.5Zm-.83 9.17h4.17v-4.17h-4.17v4.17Zm.83-3.33h2.5v2.5h-2.5v-2.5Z" fill="#030303"/></g><defs><clipPath id="a"><path fill="#fff" d="M0 0h15v15h-15z"/></clipPath></defs></svg>