<svg viewBox="0 0 15 11" fill="none" xmlns="http://www.w3.org/2000/svg"><path d="M14.44 0h-13.89a.5.5 0 0 0-.2.05.56.56 0 0 0-.19.14.65.65 0 0 0-.12.2.71.71 0 0 0-.04.24v9.74a.65.65 0 0 0 .16.45c.05.05.11.1.18.13a.5.5 0 0 0 .21.05h13.9a.5.5 0 0 0 .2-.05.56.56 0 0 0 .19-.14.56.56 0 0 0 .12-.2.72.72 0 0 0 .04-.24v-9.74a.72.72 0 0 0-.04-.24.65.65 0 0 0-.12-.2.56.56 0 0 0-.18-.14.5.5 0 0 0-.22-.05Zm-.77 2.89-5.83 3.85h-.46l-5.83-3.85a.6.6 0 0 1-.17-.17.75.75 0 0 1-.04-.73.64.64 0 0 1 .15-.2.42.42 0 0 1 .2-.1.5.5 0 0 1 .44.06l5.48 3.62 5.48-3.62a.5.5 0 0 1 .44-.07c.07.02.13.06.2.11.05.06.1.12.14.2a.72.72 0 0 1 .06.5.7.7 0 0 1-.1.23.6.6 0 0 1-.17.17Z" fill="#030303"/></svg>