<svg viewBox="0 0 85 41" fill="none" xmlns="http://www.w3.org/2000/svg"><path d="m0 41 42.5-41 42.5 41h-85Zm71.18-.62h12l-6-5.77-6 5.77Zm-13.87 0h12l-6-5.77-6 5.77Zm-13.87 0h12l-6-5.77-6 5.77Zm-13.9 0h12.05l-6.02-5.77-6.03 5.77Zm-13.94 0h12l-6-5.77-6 5.77Zm-13.79 0h12.1l-6-5.77-6.1 5.77Zm34.36-6.35 6.28 6.16 6.33-6.11-6.33-6.12-6.28 6.07Zm28.13-.39a.5.5 0 0 0-.1.65v.13l.1.04 4.63 4.56 1.37 1.15 6.32-6.1-6.19-5.95h-.36l-5.77 5.52Zm-42 .39 6.33 6.1 6.33-6.1-6.33-6.12-6.33 6.12Zm27.73 0 6.43 6.1 6.33-6.1-6.33-6.12-6.43 6.12Zm-41.6 0 6.33 6.1.44-.42 5.43-5.23a.58.58 0 0 0-.03-.95c-1.07-1-2.15-2.06-3.23-3.1l-1.61-1.56-1-.96-6.33 6.12Zm6.93-6.7 6.43 6.2.2-.34 5.64-5.46a.5.5 0 0 0 .1-.62v-.12l-.1-.09-5.5-5.24c-.08-.1-.18-.18-.3-.25l-.2-.12-6.27 6.05Zm28.34-.35a.53.53 0 0 0-.2.37.6.6 0 0 0 .18.44l5.21 5.06c.14.15.3.3.5.48l.22.2 6.32-6.1-6.73-6.45v.7l-5.5 5.3Zm13.37.4 6.33 6.11 6.33-6.1-6.33-6.11-6.33 6.1Zm-27.84 0 6.33 6.1.5-.46.84-.79c1.48-1.4 3-2.86 4.52-4.38a.56.56 0 0 0 .24-.45.6.6 0 0 0-.24-.5 510.25 510.25 0 0 1-5-4.8l-.86-.82-6.33 6.1Zm-6.93-6.73 6.33 6.1 6.33-6.1-6.33-6.13-6.33 6.13Zm13.87 0 6.28 6.09 6.33-6.1-6.28-6.11-6.33 6.12Zm13.87 0 6.33 6.08 6.33-6.1-6.33-6.09-6.33 6.1Zm-.8-12.57a473.3 473.3 0 0 1-5.66 5.47.49.49 0 0 0-.1.6v.13l.1.1 5.43 5.24.48.4 6.32-6.07-6.36-6.2-.2.33Zm-20 5.86 6.3 6.1.4-.33 5.57-5.36a.51.51 0 0 0 .1-.65v-.13l-.1-.08-5.87-5.63-6.4 6.08Zm7.32-7.02a.5.5 0 0 0-.02.69l5.91 5.68 6.33-6.1-6.11-5.87h-.37l-5.74 5.6Z" fill="#9D8665"/></svg>