<svg viewBox="0 0 15 15" fill="none" xmlns="http://www.w3.org/2000/svg"><path d="M13.59 1.22h-1.5v-.72a.5.5 0 0 0-.14-.35.5.5 0 0 0-.71 0 .5.5 0 0 0-.15.35v.71h-7.18v-.71a.5.5 0 0 0-.15-.35.5.5 0 0 0-.71 0 .5.5 0 0 0-.15.35v.71h-1.48a1.41 1.41 0 0 0-1.42 1.39v1.26h15v-1.26a1.42 1.42 0 0 0-1.41-1.39Zm-13.59 12.38a1.4 1.4 0 0 0 1.42 1.4h12.17a1.39 1.39 0 0 0 1.41-1.4v-8.67h-15v8.68Zm7.08-1.73a3.49 3.49 0 0 1 1.32-2.42c.7-.72.88-.95.88-1.51 0-.43-.11-.77-.6-.77-.5 0-.65.36-.68.93h-.89a1.44 1.44 0 0 1 .41-1.17 1.48 1.48 0 0 1 1.18-.44 1.37 1.37 0 0 1 1.13.37 1.33 1.33 0 0 1 .4 1.1c0 .67-.2 1.03-.97 1.76-.47.4-.86.9-1.12 1.47h2.24l-.12.73h-3.18v-.05Zm-2.4-4.9c.37-.05.72-.2 1-.44h.62v5.4h-.92v-4.4a3.4 3.4 0 0 1-.7.09v-.65Z" fill="#030303"/></svg>