<svg xmlns="http://www.w3.org/2000/svg"><style>:root svg:not(:target){display:none}</style><svg viewBox="0 0 12 12" fill="none" id="arrow-burger-menu"><path d="m9.33 5.53-5.34-5.34a.65.65 0 0 0-.46-.19.65.65 0 0 0-.46.2l-.4.38a.66.66 0 0 0 0 .93l4.49 4.49-4.5 4.49a.65.65 0 0 0 0 .93l.4.39a.65.65 0 0 0 .93 0l5.34-5.35c.13-.12.2-.29.2-.46a.65.65 0 0 0-.2-.47Z" fill="#fff"></path></svg><svg viewBox="0 0 30 8" fill="none" id="arrow-left-slider-welcome"><path d="M5.72 8a18.11 18.11 0 0 0-5.72-3.7v-.6a19 19 0 0 0 5.72-3.7h1.52a15.3 15.3 0 0 1-2.51 3.28h25.27v1.44h-25.27c.8.75 1.64 1.84 2.51 3.28h-1.52Z" fill="#fff"></path></svg><svg viewBox="0 0 30 8" fill="none" id="arrow-right-slider-welcome"><path d="M24.28 0a18.11 18.11 0 0 0 5.72 3.7v.6a19 19 0 0 0-5.72 3.7h-1.52a15.3 15.3 0 0 1 2.51-3.28h-25.27v-1.44h25.27a15.3 15.3 0 0 1-2.51-3.28h1.52Z" fill="#fff"></path></svg><svg viewBox="0 0 35 35" fill="none" id="btn-full-screen-video-panel-player"><path d="M30.6 30.75h-8.19v4.11h12.3v-12.35h-4.1v8.24Zm-26.5-8.25h-4.1v12.36h12.3v-4.1h-8.2v-8.25Zm-4.1-10.14h4.1v-8.24h8.2v-4.12h-12.3v12.36Zm22.41-12.36v4.12h8.2v8.24h4.1v-12.36h-12.3Z" fill="#B3B3B3"></path></svg><svg viewBox="0 0 23 31" fill="none" id="btn-play-video-panel-player"><g clip-path="url(#btn-play-video-panel-player_0)"><path d="m23 15.5-23-15.5v31l23-15.5Z" fill="#B3B3B3"></path></g><defs><clipPath id="btn-play-video-panel-player_0"><path fill="#fff" d="M0 0h23v31h-23z"></path></clipPath></defs></svg><svg viewBox="0 0 92 121" fill="none" id="btn-play-video-player"><path d="m91.43 60.09-91.43-60.09c.12 90.59 0 46.14 0 120.18l91.43-60.1Z" fill="#fff"></path></svg><svg viewBox="0 0 38 31" fill="none" id="btn-volume-video-panel-player"><g clip-path="url(#btn-volume-video-panel-player_0)" fill="#B3B3B3"><path d="M19.35 0c-.48 0-.89.16-1.24.48l-9.15 8.5h-7.2c-.48 0-.89.16-1.24.48-.35.32-.52.7-.52 1.15v9.78c0 .45.17.83.52 1.15.35.32.76.49 1.24.49h7.2l9.15 8.49c.35.32.76.48 1.24.48s.89-.16 1.24-.48c.35-.33.52-.71.52-1.15v-27.74c0-.44-.17-.82-.52-1.15a1.76 1.76 0 0 0-1.24-.48Zm10.25 19.13a6.43 6.43 0 0 0 0-7.25 5.98 5.98 0 0 0-2.94-2.39 1.5 1.5 0 0 0-.66-.12c-.45 0-.84.15-1.17.47-.34.32-.5.7-.5 1.16 0 .36.1.67.31.91.21.25.46.46.76.64s.6.38.89.6c.3.2.55.5.76.9.2.4.31.88.31 1.46s-.1 1.06-.31 1.46c-.21.39-.46.7-.76.9-.3.22-.6.42-.89.6-.3.17-.55.39-.76.63a1.57 1.57 0 0 0 .19 2.08c.33.31.72.47 1.17.47.26 0 .48-.04.66-.13a6.15 6.15 0 0 0 2.94-2.4v.01Z"></path><path d="M35.76 22.86c1.5-2.25 2.24-4.7 2.24-7.36s-.75-5.11-2.24-7.36a12.99 12.99 0 0 0-5.94-4.91 1.93 1.93 0 0 0-.69-.13c-.45 0-.85.17-1.18.5-.34.33-.5.72-.5 1.17 0 .67.34 1.19 1.02 1.53.99.5 1.66.89 2 1.15a9.87 9.87 0 0 1 3.06 12.57 9.87 9.87 0 0 1-3.05 3.53c-.35.26-1.02.64-2 1.15-.7.34-1.04.85-1.04 1.53 0 .45.17.84.5 1.17.34.33.74.5 1.22.5.2 0 .43-.04.66-.13a12.98 12.98 0 0 0 5.94-4.91Z"></path></g><defs><clipPath id="btn-volume-video-panel-player_0"><path fill="#fff" d="M0 0h38v31h-38z"></path></clipPath></defs></svg><svg viewBox="0 0 10 12" fill="none" id="double-arrow-left-video-player"><path fill-rule="evenodd" clip-rule="evenodd" d="M5.48.22c.4.34.46.97.14 1.4l-3.24 4.38 3.24 4.38c.32.43.26 1.06-.14 1.4a.88.88 0 0 1-1.3-.16l-4.18-5.62 4.17-5.62c.32-.44.9-.5 1.3-.16Zm4.17 0c.4.34.47.97.15 1.4l-3.25 4.38 3.25 4.38c.32.43.25 1.06-.15 1.4a.88.88 0 0 1-1.3-.16l-4.18-5.62 4.18-5.62c.32-.44.9-.5 1.3-.16Z" fill="#999"></path></svg><svg viewBox="0 0 10 12" fill="none" id="double-arrow-right-video-player"><path fill-rule="evenodd" clip-rule="evenodd" d="M.35.22a.88.88 0 0 1 1.3.16l4.18 5.62-4.18 5.62c-.32.44-.9.5-1.3.16-.4-.34-.47-.97-.15-1.4l3.25-4.38-3.25-4.38a1.05 1.05 0 0 1 .15-1.4Zm4.17 0a.88.88 0 0 1 1.3.16l4.18 5.62-4.17 5.62c-.32.44-.9.5-1.3.16-.4-.34-.47-.97-.15-1.4l3.24-4.38-3.24-4.38a1.05 1.05 0 0 1 .14-1.4Z" fill="#999"></path></svg><svg viewBox="0 0 24 24" fill="none" id="icon-facebook"><path d="m9.78 22-.03-8.75h-3.75v-3.75h3.75v-2.5c0-3.37 2.09-5 5.1-5 1.44 0 2.68.1 3.04.15v3.53h-2.09c-1.63 0-1.95.78-1.95 1.92v1.9h4.65l-1.25 3.75h-3.4v8.75h-4.07Z" fill="#fff"></path></svg><svg viewBox="0 0 24 24" fill="none" id="icon-instagram"><path d="M13.02 2c1.8 0 2.18.02 3.1.06 1.06.05 1.79.22 2.42.47.66.25 1.22.6 1.77 1.15.56.55.9 1.11 1.16 1.77.25.63.41 1.36.46 2.43.05.95.06 1.32.06 3.32v1.6c0 2-.01 2.37-.06 3.32a7.33 7.33 0 0 1-.46 2.42c-.26.66-.6 1.22-1.15 1.77-.56.56-1.12.9-1.78 1.16-.63.25-1.36.41-2.42.46-.95.05-1.33.06-3.33.06h-1.59c-2 0-2.37-.01-3.33-.06a7.34 7.34 0 0 1-2.42-.46 4.91 4.91 0 0 1-1.77-1.15 4.9 4.9 0 0 1-1.16-1.78 7.35 7.35 0 0 1-.46-2.42 55.2 55.2 0 0 1-.06-3.1v-2.05c0-1.8.02-2.18.06-3.1.05-1.06.22-1.79.46-2.42.26-.66.6-1.22 1.16-1.77.5-.51 1.1-.9 1.77-1.15.77-.3 1.6-.45 2.42-.47.92-.04 1.3-.06 3.1-.06h2.05Zm.02 1.8h-2.09c-1.73 0-2.1.02-3 .06-.97.04-1.5.2-1.85.34-.47.18-.8.4-1.15.75-.35.35-.57.68-.75 1.15-.13.35-.3.88-.34 1.86-.04.9-.06 1.26-.06 3v2.08c0 1.74.02 2.1.06 3 .04.97.2 1.5.34 1.85.18.47.4.8.75 1.15.35.35.68.57 1.15.75.35.14.88.3 1.86.34.97.05 1.32.06 3.48.06h1.11c2.17 0 2.51-.01 3.49-.06.97-.04 1.5-.2 1.85-.34.47-.18.8-.4 1.15-.75.35-.35.57-.68.75-1.15.14-.35.3-.88.34-1.85.05-.98.06-1.32.06-3.49v-1.1c0-2.17-.01-2.52-.06-3.5-.04-.97-.2-1.5-.34-1.85a3.1 3.1 0 0 0-.75-1.15 3.1 3.1 0 0 0-1.15-.75 5.6 5.6 0 0 0-1.85-.34c-1-.05-2-.07-3-.06Zm-1.04 3.06a5.13 5.13 0 1 1 0 10.27 5.13 5.13 0 0 1 0-10.27Zm0 1.8a3.34 3.34 0 1 0 0 6.67 3.34 3.34 0 0 0 0-6.67Zm5.33-3.2a1.2 1.2 0 1 1 0 2.4 1.2 1.2 0 0 1 0-2.4Z" fill="#fff"></path></svg><svg viewBox="0 0 24 24" fill="none" id="icon-pinteres"><path d="M12 2a10 10 0 0 0-3.64 19.3c-.1-.79-.17-2 .03-2.87l1.17-4.97s-.3-.6-.3-1.48c0-1.39.81-2.42 1.82-2.42.85 0 1.27.64 1.27 1.4 0 .86-.55 2.14-.84 3.33-.24 1 .5 1.81 1.49 1.81 1.78 0 3.14-1.87 3.14-4.57 0-2.4-1.72-4.06-4.18-4.06a4.33 4.33 0 0 0-4.52 4.33c0 .86.33 1.78.74 2.28.08.1.09.19.06.29l-.28 1.13c-.04.18-.15.23-.33.14-1.26-.59-2.04-2.4-2.04-3.88 0-3.15 2.3-6.04 6.62-6.04 3.46 0 6.17 2.46 6.17 5.77 0 3.45-2.18 6.22-5.2 6.22-1 0-1.96-.53-2.28-1.15l-.63 2.37a11 11 0 0 1-1.24 2.63 10 10 0 1 0 2.97-19.56Z" fill="#fff"></path></svg><svg viewBox="0 0 24 24" fill="none" id="icon-twiter"><path d="M22 5.88c-.75.37-1.5.5-2.38.62.88-.5 1.5-1.25 1.75-2.25-.8.48-1.7.82-2.62 1a4.36 4.36 0 0 0-3-1.25c-2.13 0-4 1.88-4 4.13 0 .37 0 .62.13.87a11.5 11.5 0 0 1-8.5-4.25 3.8 3.8 0 0 0-.5 2.13 4.1 4.1 0 0 0 1.87 3.37c-.63 0-1.25-.25-1.88-.5 0 2 1.38 3.63 3.25 4-.37.13-.75.13-1.12.13-.25 0-.5 0-.75-.13.5 1.63 2 2.88 3.88 2.88a7.95 7.95 0 0 1-5.13 1.75h-1a12.2 12.2 0 0 0 6.25 1.87c7.5 0 11.63-6.25 11.63-11.63v-.5a7.27 7.27 0 0 0 2.12-2.24Z" fill="#fff"></path></svg><svg viewBox="0 0 24 24" fill="none" id="icon-youtube"><path d="M10.03 15.38v-6.76l5.94 3.38-5.94 3.38Zm13.2-8.88a2.85 2.85 0 0 0-2-2.02c-1.77-.48-8.88-.48-8.88-.48s-7.1 0-8.87.48a2.85 2.85 0 0 0-2 2.02c-.48 1.78-.48 5.5-.48 5.5s0 3.72.47 5.5a2.85 2.85 0 0 0 2.01 2.02c1.77.48 8.88.48 8.88.48s7.1 0 8.87-.48a2.85 2.85 0 0 0 2-2.02c.48-1.78.48-5.5.48-5.5s0-3.72-.47-5.5h-.01Z" fill="#fff"></path></svg><svg viewBox="0 0 199 33" fill="none" id="logo-museum"><g clip-path="url(#logo-museum_0)"><path d="M49 26h-49l24.5-26 24.5 26Zm-35.7-12.87 3.34 3.54 3.34-3.54-3.34-3.55-3.33 3.55Zm3.34 11.88 3.34-3.54-3.34-3.55-3.33 3.55 3.33 3.54Zm15.77 0 3.34-3.54-3.34-3.55-3.4 3.55 3.4 3.54Zm-3.94-19.6a268.74 268.74 0 0 1-3.23 3.45c-.1.08 0 .15 0 .23l3.07 3.27.14.13 3.34-3.53-3.32-3.56Zm-19.68 19.6.13-.14 3.07-3.26a.2.2 0 0 0 .08-.15.2.2 0 0 0-.08-.15c-.93-.96-1.84-1.95-2.75-2.92l-.45-.47-3.34 3.55 3.34 3.54Zm8.45-16.06 3.33 3.54.1-.1 3.15-3.32c.1-.12 0-.18 0-.26l-3.08-3.25-.13-.14-3.37 3.53Zm0 8.38 3.33 3.54.17-.17c1-1.05 2.01-2.1 3.02-3.21a.23.23 0 0 0 .07-.08.18.18 0 0 0 .02-.09c0-.03 0-.06-.02-.08a.23.23 0 0 0-.07-.08c-.94-1-1.89-1.99-2.82-3l-.37-.37-3.33 3.54Zm15.76 0 3.34 3.54 3.33-3.54-3.33-3.54-3.34 3.54Zm-4.53-3.55v.07l-3.17 3.36c-.1.1-.06.16 0 .25l2.94 3.14c.08.1.17.19.28.29l3.34-3.54-3.4-3.57Zm-15.74 7.07a.3.3 0 0 1 .07-.09l3.16-3.36c.1-.1 0-.15 0-.24l-3.11-3.26a.71.71 0 0 0-.15-.13l-3.32 3.53 3.35 3.55Zm19.63-4.19 3.33-3.54-3.33-3.53-3.34 3.54 3.34 3.53Zm-7.89-8.38 3.34-3.54-3.28-3.46h-.07l-3.2 3.43a.13.13 0 0 0-.04.09c0 .03.02.05.04.08l3.21 3.4Zm0 8.38 3.34-3.54-3.31-3.54-3.34 3.55 3.31 3.53Zm0 8.38 3.34-3.54-3.34-3.55-3.3 3.52 3.3 3.57Zm15.77 0 3.33-3.54-3.32-3.52h-.06l-3.22 3.38c-.1.12 0 .17 0 .24l2.62 2.84.65.6Zm-38.35.2h6l-2.98-3.15-3.02 3.15Zm39.28 0h5.94l-2.97-3.15-2.97 3.15Zm-17.62 0-2.98-3.15-2.98 3.15h5.96Zm9.76 0h5.94l-2.97-3.15-2.97 3.15Zm-1.91 0-2.97-3.15-2.97 3.15h5.94Zm-15.77 0-2.97-3.15-2.97 3.15h5.94Z" fill="#fff"></path></g><path d="M75.26 25.72h.14a.6.6 0 0 0 .4-.14c.1-.11.2-.24.27-.4.1-.14.16-.3.2-.47.05-.17.08-.32.08-.47v-14.98c0-.13-.03-.28-.08-.45-.04-.17-.1-.33-.2-.48a1.11 1.11 0 0 0-.28-.36.54.54 0 0 0-.39-.17h-.14v-.28h4.03v.28h-.14a.54.54 0 0 0-.39.17c-.11.1-.2.21-.28.36-.07.15-.14.31-.2.48a2.1 2.1 0 0 0-.05.45v15.7h6.13c.35 0 .66-.08.92-.25a2.5 2.5 0 0 0 1.04-1.43c.1-.3.14-.57.14-.8h.28v3.52h-11.48v-.28Zm26.3-18.48c1.46 0 2.77.26 3.92.78 1.16.5 2.14 1.2 2.94 2.08a8.68 8.68 0 0 1 1.88 3.02 9.7 9.7 0 0 1 .67 3.58 9.4 9.4 0 0 1-6.02 8.88c-1.17.47-2.44.7-3.78.7a9.17 9.17 0 0 1-6.8-2.86 9.7 9.7 0 0 1-2.46-6.47 10.07 10.07 0 0 1 2.51-6.66 9.53 9.53 0 0 1 7.14-3.05Zm-.03 18.06a7.52 7.52 0 0 0 7.06-5.43 8.88 8.88 0 0 0-.08-5.94 9.37 9.37 0 0 0-1.6-2.83 8.07 8.07 0 0 0-2.5-2.07 6.4 6.4 0 0 0-3.21-.81 6.1 6.1 0 0 0-3.1.78 7.95 7.95 0 0 0-3.82 4.65c-.33 1-.5 1.96-.5 2.91 0 1.03.2 2.07.59 3.11a9.9 9.9 0 0 0 1.62 2.8c.7.84 1.5 1.52 2.44 2.05.95.52 1.98.78 3.1.78Zm16.9-17.78h3.97v.28h-.14a.54.54 0 0 0-.39.17c-.11.1-.21.21-.3.36a2.03 2.03 0 0 0-.23.93v11.06c0 .72.08 1.4.22 2.01a3.68 3.68 0 0 0 2.16 2.66 5.5 5.5 0 0 0 2.13.37c.93 0 1.68-.15 2.24-.45.56-.3.99-.68 1.29-1.15.3-.49.5-1.03.58-1.62.1-.6.14-1.19.14-1.77v-11.11c0-.13-.01-.28-.05-.45-.04-.17-.1-.33-.2-.48a1.12 1.12 0 0 0-.28-.36.5.5 0 0 0-.36-.17h-.14v-.28h3.05v.28h-.14a.54.54 0 0 0-.4.17c-.09.1-.18.21-.27.36a2.03 2.03 0 0 0-.23.93v11.03a8.5 8.5 0 0 1-.44 3 4.34 4.34 0 0 1-3.08 2.74 9.76 9.76 0 0 1-4.57-.03 4.33 4.33 0 0 1-1.85-.92 4.49 4.49 0 0 1-1.23-1.82 8.32 8.32 0 0 1-.45-2.94v-11.06c0-.13-.02-.28-.05-.45-.04-.17-.1-.33-.2-.48a1.12 1.12 0 0 0-.28-.36.5.5 0 0 0-.36-.17h-.14v-.28Zm23.65.98c0 .11.02.25.08.42l4.93 13.27 4.93-13.41.05-.17a.8.8 0 0 0 .03-.17.5.5 0 0 0-.28-.47.87.87 0 0 0-.48-.17v-.28h3.06v.28c-.28 0-.55.07-.79.22-.22.15-.4.4-.53.76l-6.41 17.56-6.55-17.48a1.97 1.97 0 0 0-.5-.72c-.21-.2-.47-.32-.8-.34v-.28h3.98v.28a.82.82 0 0 0-.5.2c-.15.1-.22.28-.22.5Zm23 17.22h.14v.28h-3.95v-.28h.14a.5.5 0 0 0 .36-.17c.11-.11.2-.24.28-.39.1-.15.16-.3.2-.48.03-.18.05-.35.05-.5v-14.92c0-.13-.02-.28-.05-.45-.04-.17-.1-.33-.2-.48a1.12 1.12 0 0 0-.28-.36.5.5 0 0 0-.36-.17h-.14v-.28h4.87c1.87 0 3.3.36 4.31 1.1a3.7 3.7 0 0 1 1.54 3.21 4.56 4.56 0 0 1-1.29 3.25 4.8 4.8 0 0 1-1.4.92 8 8 0 0 1-1.68.5l2.02 3.09 1.48 2.21c.5.7 1 1.45 1.49 2.21l.42.59c.17.2.33.4.5.56.19.17.38.3.56.42.2.1.41.14.62.14v.28h-1.2c-.75 0-1.37-.18-1.85-.53-.47-.38-.86-.8-1.18-1.29a327.42 327.42 0 0 1-4.98-7.5l-.68-.06-.64-.11v7.67a2.34 2.34 0 0 0 .22.98l.28.4c.12.1.25.16.4.16Zm-.9-17.25v7.11h.14l.7.06h1.23c.4 0 .8-.06 1.23-.17a3.38 3.38 0 0 0 2.18-1.76c.27-.47.4-1.06.4-1.77 0-.7-.14-1.28-.42-1.73a2.8 2.8 0 0 0-1.12-1.07 4.84 4.84 0 0 0-1.7-.53c-.68-.1-1.42-.14-2.22-.14h-.42Zm17.2 17.25h.15a.6.6 0 0 0 .4-.14c.1-.11.2-.24.27-.4.1-.14.16-.3.2-.47.05-.17.08-.32.08-.47v-14.98c0-.13-.03-.28-.08-.45-.04-.17-.1-.33-.2-.48a1.12 1.12 0 0 0-.28-.36.54.54 0 0 0-.4-.17h-.13v-.28h10.78v2.6h-.28c-.04-.43-.2-.8-.5-1.12-.3-.33-.77-.5-1.4-.5h-5.63v7.08h4.64c.43 0 .79-.13 1.07-.39.3-.26.45-.57.45-.92h.28v3.5h-.28c0-.34-.14-.63-.42-.87a1.6 1.6 0 0 0-1.1-.36h-4.64v8.48h6.13c.35 0 .66-.08.92-.25a2.45 2.45 0 0 0 1.04-1.35c.1-.28.14-.5.14-.7h.28v3.28h-11.48v-.28Z" fill="#fff"></path><defs><clipPath id="logo-museum_0"><path fill="#fff" d="M0 0h49v26h-49z"></path></clipPath></defs></svg><svg viewBox="0 0 15 15" fill="none" id="ticket-chek-type"><g clip-path="url(#ticket-chek-type_0)"><path d="m10.94 4.18-4.94 4.95-2.7-2.69-1.05 1.06 3.75 3.75 6-6-1.06-1.07Zm-3.44-4.18a7.5 7.5 0 1 0 0 15 7.5 7.5 0 0 0 0-15Zm0 13.5a6 6 0 1 1 0-12 6 6 0 0 1 0 12Z" fill="#000"></path></g><defs><clipPath id="ticket-chek-type_0"><path fill="#fff" d="M0 0h15v14.96h-15z"></path></clipPath></defs></svg><svg viewBox="0 0 26 26" fill="none" id="ticket-close"><path d="m.35.35 25 25m0-25-25 25" stroke="#030303"></path></svg><svg viewBox="0 0 15 15" fill="none" id="ticket-date"><path d="M13.59 1.22h-1.5v-.72a.5.5 0 0 0-.14-.35.5.5 0 0 0-.71 0 .5.5 0 0 0-.15.35v.71h-7.18v-.71a.5.5 0 0 0-.15-.35.5.5 0 0 0-.71 0 .5.5 0 0 0-.15.35v.71h-1.48a1.41 1.41 0 0 0-1.42 1.39v1.26h15v-1.26a1.42 1.42 0 0 0-1.41-1.39Zm-13.59 12.38a1.4 1.4 0 0 0 1.42 1.4h12.17a1.39 1.39 0 0 0 1.41-1.4v-8.67h-15v8.68Zm7.08-1.73a3.49 3.49 0 0 1 1.32-2.42c.7-.72.88-.95.88-1.51 0-.43-.11-.77-.6-.77-.5 0-.65.36-.68.93h-.89a1.44 1.44 0 0 1 .41-1.17 1.48 1.48 0 0 1 1.18-.44 1.37 1.37 0 0 1 1.13.37 1.33 1.33 0 0 1 .4 1.1c0 .67-.2 1.03-.97 1.76-.47.4-.86.9-1.12 1.47h2.24l-.12.73h-3.18v-.05Zm-2.4-4.9c.37-.05.72-.2 1-.44h.62v5.4h-.92v-4.4a3.4 3.4 0 0 1-.7.09v-.65Z" fill="#030303"></path></svg><svg viewBox="0 0 6 4" fill="none" id="ticket-down-arrow"><path d="m3 4 3-4h-6l3 4Z" fill="#A4A4A3"></path></svg><svg viewBox="0 0 15 11" fill="none" id="ticket-email"><path d="M14.44 0h-13.89a.5.5 0 0 0-.2.05.56.56 0 0 0-.19.14.65.65 0 0 0-.12.2.71.71 0 0 0-.04.24v9.74a.65.65 0 0 0 .16.45c.05.05.11.1.18.13a.5.5 0 0 0 .21.05h13.9a.5.5 0 0 0 .2-.05.56.56 0 0 0 .19-.14.56.56 0 0 0 .12-.2.72.72 0 0 0 .04-.24v-9.74a.72.72 0 0 0-.04-.24.65.65 0 0 0-.12-.2.56.56 0 0 0-.18-.14.5.5 0 0 0-.22-.05Zm-.77 2.89-5.83 3.85h-.46l-5.83-3.85a.6.6 0 0 1-.17-.17.75.75 0 0 1-.04-.73.64.64 0 0 1 .15-.2.42.42 0 0 1 .2-.1.5.5 0 0 1 .44.06l5.48 3.62 5.48-3.62a.5.5 0 0 1 .44-.07c.07.02.13.06.2.11.05.06.1.12.14.2a.72.72 0 0 1 .06.5.7.7 0 0 1-.1.23.6.6 0 0 1-.17.17Z" fill="#030303"></path></svg><svg viewBox="0 0 85 41" fill="none" id="ticket-logo"><path d="m0 41 42.5-41 42.5 41h-85Zm71.18-.62h12l-6-5.77-6 5.77Zm-13.87 0h12l-6-5.77-6 5.77Zm-13.87 0h12l-6-5.77-6 5.77Zm-13.9 0h12.05l-6.02-5.77-6.03 5.77Zm-13.94 0h12l-6-5.77-6 5.77Zm-13.79 0h12.1l-6-5.77-6.1 5.77Zm34.36-6.35 6.28 6.16 6.33-6.11-6.33-6.12-6.28 6.07Zm28.13-.39a.5.5 0 0 0-.1.65v.13l.1.04 4.63 4.56 1.37 1.15 6.32-6.1-6.19-5.95h-.36l-5.77 5.52Zm-42 .39 6.33 6.1 6.33-6.1-6.33-6.12-6.33 6.12Zm27.73 0 6.43 6.1 6.33-6.1-6.33-6.12-6.43 6.12Zm-41.6 0 6.33 6.1.44-.42 5.43-5.23a.58.58 0 0 0-.03-.95c-1.07-1-2.15-2.06-3.23-3.1l-1.61-1.56-1-.96-6.33 6.12Zm6.93-6.7 6.43 6.2.2-.34 5.64-5.46a.5.5 0 0 0 .1-.62v-.12l-.1-.09-5.5-5.24c-.08-.1-.18-.18-.3-.25l-.2-.12-6.27 6.05Zm28.34-.35a.53.53 0 0 0-.2.37.6.6 0 0 0 .18.44l5.21 5.06c.14.15.3.3.5.48l.22.2 6.32-6.1-6.73-6.45v.7l-5.5 5.3Zm13.37.4 6.33 6.11 6.33-6.1-6.33-6.11-6.33 6.1Zm-27.84 0 6.33 6.1.5-.46.84-.79c1.48-1.4 3-2.86 4.52-4.38a.56.56 0 0 0 .24-.45.6.6 0 0 0-.24-.5 510.25 510.25 0 0 1-5-4.8l-.86-.82-6.33 6.1Zm-6.93-6.73 6.33 6.1 6.33-6.1-6.33-6.13-6.33 6.13Zm13.87 0 6.28 6.09 6.33-6.1-6.28-6.11-6.33 6.12Zm13.87 0 6.33 6.08 6.33-6.1-6.33-6.09-6.33 6.1Zm-.8-12.57a473.3 473.3 0 0 1-5.66 5.47.49.49 0 0 0-.1.6v.13l.1.1 5.43 5.24.48.4 6.32-6.07-6.36-6.2-.2.33Zm-20 5.86 6.3 6.1.4-.33 5.57-5.36a.51.51 0 0 0 .1-.65v-.13l-.1-.08-5.87-5.63-6.4 6.08Zm7.32-7.02a.5.5 0 0 0-.02.69l5.91 5.68 6.33-6.1-6.11-5.87h-.37l-5.74 5.6Z" fill="#9D8665"></path></svg><svg viewBox="0 0 10 2" fill="none" id="ticket-minus"><path fill="#fff" d="M0 0h10v2h-10z"></path></svg><svg viewBox="0 0 13 15" fill="none" id="ticket-name"><path d="m7.9 9.46.02-.07v-1.68c0-.05-.02-.1-.03-.14.65-.38 1.19-.9 1.56-1.54.37-.63.57-1.33.56-2.05 0-2.2-1.57-3.98-3.51-3.98-1.94 0-3.51 1.78-3.51 3.98.02.72.23 1.42.6 2.05.4.63.94 1.15 1.6 1.53a.95.95 0 0 0-.04.15v1.67l.01.04c-2.97.35-5.16 1.86-5.16 3.35 0 1.7 2.9 2.23 6.5 2.23s6.5-.54 6.5-2.23c0-1.46-2.2-2.92-5.1-3.31Z" fill="#030303"></path></svg><svg viewBox="0 0 14 23" fill="none" id="ticket-phone"><path d="M12.37 0h-10.74a1.6 1.6 0 0 0-1.63 1.58v19.84c0 .42.17.82.48 1.12.3.3.72.46 1.15.46h10.74a1.6 1.6 0 0 0 1.63-1.58v-19.84a1.6 1.6 0 0 0-1.63-1.58Zm-8.43 21.18h-1.75a.6.6 0 0 1-.41-.16.56.56 0 0 1 0-.8.6.6 0 0 1 .41-.17h1.75c.16 0 .3.06.42.17a.56.56 0 0 1 0 .8.6.6 0 0 1-.42.16Zm0-2.16h-1.75a.6.6 0 0 1-.41-.16.56.56 0 0 1 0-.8.6.6 0 0 1 .41-.17h1.75c.16 0 .3.06.42.17a.56.56 0 0 1 0 .8.6.6 0 0 1-.42.16Zm0-2.16h-1.75a.6.6 0 0 1-.41-.16.56.56 0 0 1 0-.8.6.6 0 0 1 .41-.17h1.75c.16 0 .3.06.42.17a.56.56 0 0 1 0 .8.6.6 0 0 1-.42.16Zm0-2.16h-1.75a.6.6 0 0 1-.41-.16.56.56 0 0 1 0-.8.6.6 0 0 1 .41-.17h1.75c.16 0 .3.06.42.16a.56.56 0 0 1 0 .8.6.6 0 0 1-.42.17Zm3.94 6.49h-1.76a.6.6 0 0 1-.41-.17.56.56 0 0 1 0-.8.6.6 0 0 1 .41-.17h1.76c.15 0 .3.06.41.17a.56.56 0 0 1 0 .8.6.6 0 0 1-.41.17Zm0-2.17h-1.76a.6.6 0 0 1-.4-.16.56.56 0 0 1-.18-.4.55.55 0 0 1 .17-.4.58.58 0 0 1 .41-.17h1.76a.6.6 0 0 1 .41.17.57.57 0 0 1 .17.4.55.55 0 0 1-.17.4.59.59 0 0 1-.41.16Zm0-2.16h-1.76a.6.6 0 0 1-.41-.16.56.56 0 0 1 0-.8.6.6 0 0 1 .41-.17h1.76c.15 0 .3.06.41.17a.56.56 0 0 1 0 .8.6.6 0 0 1-.41.16Zm0-2.16h-1.76a.6.6 0 0 1-.41-.16.57.57 0 0 1-.17-.4.55.55 0 0 1 .17-.4.59.59 0 0 1 .41-.17h1.76a.6.6 0 0 1 .41.16.57.57 0 0 1 .17.4.55.55 0 0 1-.17.4.59.59 0 0 1-.41.17Zm3.93 6.49h-1.76a.6.6 0 0 1-.4-.17.56.56 0 0 1 0-.8.6.6 0 0 1 .4-.17h1.76c.16 0 .3.06.41.17a.56.56 0 0 1 0 .8.6.6 0 0 1-.41.17Zm0-2.17h-1.76a.6.6 0 0 1-.4-.16.56.56 0 0 1 0-.8.6.6 0 0 1 .4-.17h1.76c.15 0 .3.06.41.17a.56.56 0 0 1 0 .8.6.6 0 0 1-.41.16Zm0-2.15h-1.76a.6.6 0 0 1-.4-.17.57.57 0 0 1-.18-.4.55.55 0 0 1 .17-.4.59.59 0 0 1 .41-.17h1.76a.6.6 0 0 1 .41.17.57.57 0 0 1 .18.4.55.55 0 0 1-.18.4.59.59 0 0 1-.41.17Zm0-2.17h-1.76a.6.6 0 0 1-.4-.16.56.56 0 0 1 0-.8.6.6 0 0 1 .4-.17h1.76c.16 0 .3.06.41.17a.56.56 0 0 1 0 .8.6.6 0 0 1-.41.16Zm.62-2.44h-10.86v-10.4h10.86v10.4Z" fill="#030303"></path></svg><svg viewBox="0 0 10 10" fill="none" id="ticket-plus"><path d="M0 4h10v2h-10v-2Z" fill="#fff"></path><path d="M4 10v-10h2v10h-2Z" fill="#fff"></path></svg><svg viewBox="0 0 17 17" fill="none" id="ticket-select-arrow"><path d="M8.49 0a8.5 8.5 0 1 0 .02 17 8.5 8.5 0 0 0-.02-17Zm.32 11.72-4.7-4.94h9.39l-4.7 4.94Z" fill="#030303"></path></svg><svg viewBox="0 0 15 15" fill="none" id="ticket-time"><path d="M7.5 0a7.5 7.5 0 1 0 0 15 7.5 7.5 0 0 0 0-15Zm2.9 10.02a.47.47 0 0 1-.66.1l-2.79-1.98v-4.2a.47.47 0 1 1 .95 0v3.72l2.39 1.7a.47.47 0 0 1 .11.66Z" fill="#030303"></path></svg><svg viewBox="0 0 15 15" fill="none" id="ticket-type"><g clip-path="url(#ticket-type_0)"><path fill-rule="evenodd" clip-rule="evenodd" d="M8.33 5.42h4.17v-1.67h-4.17v1.67Zm0 5.83h4.17v-1.67h-4.17v1.67Zm5 3.75h-11.66c-.92 0-1.67-.75-1.67-1.67v-11.66c0-.92.75-1.67 1.67-1.67h11.66c.92 0 1.67.75 1.67 1.67v11.66c0 .92-.75 1.67-1.67 1.67Zm-10.83-8.33h4.17v-4.17h-4.17v4.17Zm.83-3.34h2.5v2.5h-2.5v-2.5Zm-.83 9.17h4.17v-4.17h-4.17v4.17Zm.83-3.33h2.5v2.5h-2.5v-2.5Z" fill="#030303"></path></g><defs><clipPath id="ticket-type_0"><path fill="#fff" d="M0 0h15v15h-15z"></path></clipPath></defs></svg><svg viewBox="0 0 6 4" fill="none" id="ticket-up-arrow"><path d="m3 0-3 4h6l-3-4Z" fill="#A4A4A3"></path></svg></svg>